<svg width="1031" height="1080" viewBox="0 0 1031 1080" fill="none" xmlns="http://www.w3.org/2000/svg">
<g filter="url(#filter0_f_279_729)">
<ellipse cx="387.734" cy="660.567" rx="226.7" ry="175.93" transform="rotate(29.5595 387.734 660.567)" fill="#303030"/>
</g>
<g filter="url(#filter1_f_279_729)">
<ellipse cx="342.769" cy="700.895" rx="162.724" ry="72.4293" transform="rotate(36.7175 342.769 700.895)" fill="url(#paint0_linear_279_729)"/>
</g>
<g opacity="0.3" filter="url(#filter2_f_279_729)">
<path d="M872.167 584.169C872.167 791.681 703.945 959.902 496.433 959.902C288.922 959.902 120.7 791.681 120.7 584.169C120.7 376.657 288.922 208.436 496.433 208.436C703.945 208.436 872.167 376.657 872.167 584.169ZM225.671 584.169C225.671 733.707 346.896 854.931 496.433 854.931C645.971 854.931 767.196 733.707 767.196 584.169C767.196 434.631 645.971 313.407 496.433 313.407C346.896 313.407 225.671 434.631 225.671 584.169Z" fill="url(#paint1_radial_279_729)" fill-opacity="0.5"/>
</g>
<g opacity="0.4" filter="url(#filter3_f_279_729)">
<path d="M826.469 584.169C826.469 772.612 673.933 925.375 485.771 925.375C297.608 925.375 145.072 772.612 145.072 584.169C145.072 395.726 297.608 242.963 485.771 242.963C673.933 242.963 826.469 395.726 826.469 584.169ZM239.468 584.169C239.468 720.401 349.741 830.839 485.771 830.839C621.8 830.839 732.074 720.401 732.074 584.169C732.074 447.937 621.8 337.499 485.771 337.499C349.741 337.499 239.468 447.937 239.468 584.169Z" fill="url(#paint2_radial_279_729)" fill-opacity="0.5"/>
</g>
<g filter="url(#filter4_f_279_729)">
<ellipse cx="571.593" cy="437.414" rx="353.373" ry="170.338" transform="rotate(29.5595 571.593 437.414)" fill="#FCB3FF"/>
</g>
<mask id="mask0_279_729" style="mask-type:alpha" maskUnits="userSpaceOnUse" x="198" y="149" width="688" height="688">
<circle cx="542.289" cy="492.97" r="343.617" fill="white"/>
</mask>
<g mask="url(#mask0_279_729)">
<circle cx="541.857" cy="492.97" r="343.617" fill="#F17840"/>
<g opacity="0.9" filter="url(#filter5_f_279_729)">
<ellipse cx="662.776" cy="353.62" rx="294.872" ry="170.287" transform="rotate(40.0768 662.776 353.62)" fill="#F17840"/>
</g>
<g opacity="0.9" filter="url(#filter6_f_279_729)">
<path d="M833.334 684.641C762.694 768.598 715.042 557.194 569.662 434.874C424.282 312.553 239.325 307.276 309.965 223.319C380.604 139.363 627.029 100.999 772.409 223.319C917.789 345.64 903.973 600.685 833.334 684.641Z" fill="#F17840"/>
</g>
<g opacity="0.9" filter="url(#filter7_f_279_729)">
<ellipse cx="678.283" cy="317.957" rx="244.022" ry="140.922" transform="rotate(40.0768 678.283 317.957)" fill="#7F30FF" fill-opacity="0.15"/>
</g>
<g opacity="0.9" filter="url(#filter8_f_279_729)">
<ellipse cx="419.217" cy="662.213" rx="181.865" ry="234.786" transform="rotate(-45.1708 419.217 662.213)" fill="#FAE8FA"/>
</g>
<g opacity="0.9" filter="url(#filter9_f_279_729)">
<ellipse cx="382.464" cy="705.332" rx="191.629" ry="144.222" transform="rotate(-7.8963 382.464 705.332)" fill="white"/>
</g>
<g opacity="0.9" filter="url(#filter10_f_279_729)">
<path d="M532.461 174.017C569.136 203.681 473.961 262.669 400.606 353.363C327.25 444.056 262.479 523.473 225.804 493.809C189.129 464.145 222.167 365.245 295.523 274.551C368.879 183.857 495.786 144.353 532.461 174.017Z" fill="#B489FA"/>
</g>
<g opacity="0.9" filter="url(#filter11_f_279_729)">
<path d="M438.092 264.577C450.621 277.749 395.837 310.231 346.205 357.442C296.572 404.652 252.857 446.013 240.328 432.841C227.799 419.669 259.66 369.943 309.293 322.732C358.925 275.521 425.563 251.405 438.092 264.577Z" fill="#AF97F8"/>
</g>
<g opacity="0.5" filter="url(#filter12_f_279_729)">
<path d="M519.67 135.941C545.493 158.972 448.288 227.291 363.323 322.555C278.358 417.819 203.485 501.309 177.662 478.278C151.839 455.247 202.997 357.654 287.962 262.39C372.926 167.126 493.847 112.91 519.67 135.941Z" fill="#A39AF8"/>
</g>
<g opacity="0.9" filter="url(#filter13_f_279_729)">
<path d="M430.398 172.748C443.965 184.848 384.046 230.664 329.643 291.661C275.24 352.659 227.324 406.142 213.757 394.041C200.19 381.941 235.243 321.5 289.646 260.502C344.049 199.504 416.831 160.648 430.398 172.748Z" fill="#7F30FF"/>
</g>
<g opacity="0.9" filter="url(#filter14_f_279_729)">
<path d="M497.85 227.325C529.936 261.251 447.795 288.654 384.859 348.176C321.923 407.698 266.348 459.692 234.262 425.766C173.84 371.35 230.041 315.741 292.977 256.219C355.912 196.697 447.665 163.778 497.85 227.325Z" fill="#7F30FF"/>
</g>
<g opacity="0.9" filter="url(#filter15_f_279_729)">
<path d="M445.45 252.542C475.06 267.853 416.634 324.066 377.728 399.308C338.822 474.55 304.38 540.519 274.77 525.208C220.451 504.285 254.82 435.044 293.727 359.802C332.633 284.56 397.544 219.839 445.45 252.542Z" fill="#D5B6F9"/>
</g>
<g opacity="0.9" filter="url(#filter16_f_279_729)">
<path d="M623.459 235.665C655.281 269.313 557.242 312.164 476.538 388.491C395.833 464.819 324.649 531.579 292.826 497.931C261.003 464.284 303.951 374.329 384.656 298.002C465.36 221.674 591.636 202.017 623.459 235.665Z" fill="url(#paint3_linear_279_729)"/>
</g>
<g opacity="0.5" filter="url(#filter17_f_279_729)">
<path d="M440.666 178.119C457.503 193.135 394.125 237.679 338.728 299.791C283.331 361.903 234.513 416.339 217.677 401.323C200.84 386.307 234.195 322.676 289.592 260.564C344.989 198.451 423.83 163.103 440.666 178.119Z" fill="#7F30FF"/>
</g>
<g opacity="0.9" filter="url(#filter18_f_279_729)">
<path d="M824.907 462.662C782.739 512.779 702.628 447.312 615.844 374.293C529.061 301.275 468.469 248.357 510.637 198.24C552.804 148.123 657.34 166.688 744.123 239.706C830.906 312.725 867.075 412.545 824.907 462.662Z" fill="#F17840"/>
</g>
<g opacity="0.9" filter="url(#filter19_f_279_729)">
<ellipse cx="699.79" cy="330.754" rx="145.365" ry="83.9474" transform="rotate(40.0768 699.79 330.754)" fill="#F17840"/>
</g>
<g opacity="0.9" filter="url(#filter20_f_279_729)">
<path d="M828.272 429.03C804.585 452.081 716.069 449.624 646.629 378.266C577.189 306.908 521.147 226.032 544.835 202.981C568.522 179.931 675.989 186.73 745.429 258.088C814.869 329.446 851.959 405.98 828.272 429.03Z" fill="#F17840"/>
</g>
<g opacity="0.9" filter="url(#filter21_f_279_729)">
<path d="M728.471 526.425C693.856 560.11 674.855 440.686 605.415 369.328C535.975 297.97 376.576 318.9 411.191 285.215C509.083 177.657 622.927 206.559 692.367 277.917C761.807 349.276 763.087 492.741 728.471 526.425Z" fill="#7F30FF"/>
</g>
<g opacity="0.9" filter="url(#filter22_f_279_729)">
<path d="M705.698 501.365C689.975 516.666 616.333 499.736 546.893 428.378C477.453 357.02 417.498 279.952 433.221 264.651C448.944 249.351 538.996 273.098 608.436 344.456C677.875 415.814 721.422 486.065 705.698 501.365Z" fill="#F17840"/>
</g>
<g opacity="0.5" filter="url(#filter23_f_279_729)">
<path d="M854.105 567.928C819.06 598.34 796.967 463.515 724.339 361.516C651.711 259.517 542.752 219.906 577.796 189.495C612.84 159.083 718.537 196.176 791.165 298.175C863.794 400.173 889.149 537.516 854.105 567.928Z" fill="white"/>
</g>
<g opacity="0.3" filter="url(#filter24_f_279_729)">
<path d="M816.563 646.523C779.289 678.87 782.271 521.64 754.416 444.107C724.473 360.766 619.119 277.624 667.346 235.773C704.619 203.426 788.731 253.249 842.274 435.866C848.233 502.405 853.837 614.176 816.563 646.523Z" fill="white"/>
</g>
<g opacity="0.8" filter="url(#filter25_f_279_729)">
<path d="M839.352 570.917C802.881 598.672 789.651 464.374 724.528 359.228C659.405 254.082 519.287 226.267 555.759 198.512C592.23 170.757 729.292 195.883 794.415 301.029C859.539 406.175 875.824 543.162 839.352 570.917Z" fill="url(#paint4_linear_279_729)"/>
</g>
<g filter="url(#filter26_f_279_729)">
<path d="M839.792 514.322C811.008 539.301 819.897 419.974 759.35 344.996C663.514 226.319 525.487 211.574 554.271 186.595C583.055 161.616 734.506 218.599 790.73 297.561C846.955 376.523 868.575 489.344 839.792 514.322Z" fill="url(#paint5_linear_279_729)"/>
</g>
<g filter="url(#filter27_f_279_729)">
<path d="M830.853 464.17C802.069 489.149 819.895 419.975 759.348 344.997C663.513 226.32 612.383 262.222 641.167 237.244C669.951 212.265 734.504 218.599 790.729 297.561C846.954 376.524 859.636 439.191 830.853 464.17Z" fill="url(#paint6_linear_279_729)"/>
</g>
<g opacity="0.3" filter="url(#filter28_f_279_729)">
<path d="M551.031 823.85C551.031 814.415 705.935 778.903 782.427 695.242C858.919 611.58 860.386 488.177 871.808 488.177C888.458 503.4 870.837 622.008 794.345 705.669C717.853 789.331 567.681 839.073 551.031 823.85Z" fill="#F17840"/>
</g>
<g filter="url(#filter29_f_279_729)">
<path d="M196.612 406.579C210.674 405.532 204.659 608.679 307.39 714.341C410.121 820.002 618.385 824.441 615.105 841.604C587.636 868.312 386.107 856.579 283.375 750.917C180.644 645.256 169.143 433.287 196.612 406.579Z" fill="url(#paint7_linear_279_729)"/>
</g>
<g style="mix-blend-mode:plus-darker" opacity="0.5" filter="url(#filter30_f_279_729)">
<path d="M281.653 714.829C289.38 707.53 405.764 810.491 529.12 812.973C652.476 815.455 778.691 717.169 786.879 727.205C786.348 753.612 659.822 845.056 536.466 842.574C413.11 840.092 281.122 741.236 281.653 714.829Z" fill="#F17840"/>
</g>
<g opacity="0.2" filter="url(#filter31_f_279_729)">
<path d="M558.48 829.312C594.558 826.049 718.279 788.842 794.771 705.18C871.263 621.519 873.549 532.473 871.869 488.234C889.834 504.659 876.121 626.839 799.629 710.5C723.137 794.162 576.445 845.737 558.48 829.312Z" fill="#F17840"/>
</g>
<g opacity="0.5" filter="url(#filter32_f_279_729)">
<path d="M902.357 492.971C902.357 692.069 740.955 853.471 541.857 853.471C342.758 853.471 181.357 692.069 181.357 492.971C181.357 293.872 342.758 132.471 541.857 132.471C740.955 132.471 902.357 293.872 902.357 492.971ZM215.12 492.971C215.12 673.422 361.405 819.708 541.857 819.708C722.309 819.708 868.594 673.422 868.594 492.971C868.594 312.519 722.309 166.234 541.857 166.234C361.405 166.234 215.12 312.519 215.12 492.971Z" fill="url(#paint8_radial_279_729)"/>
</g>
<g opacity="0.5" filter="url(#filter33_f_279_729)">
<path d="M902.357 492.971C902.357 692.069 740.955 853.471 541.857 853.471C342.758 853.471 181.357 692.069 181.357 492.971C181.357 293.872 342.758 132.471 541.857 132.471C740.955 132.471 902.357 293.872 902.357 492.971ZM204.372 492.971C204.372 679.358 355.469 830.455 541.857 830.455C728.244 830.455 879.341 679.358 879.341 492.971C879.341 306.583 728.244 155.486 541.857 155.486C355.469 155.486 204.372 306.583 204.372 492.971Z" fill="url(#paint9_linear_279_729)"/>
</g>
<g opacity="0.5" filter="url(#filter34_f_279_729)">
<path d="M193.454 437.884C205.169 438.578 203.278 627.79 301.606 728.922C399.934 830.054 579.744 828.83 578.915 843.012C558.804 862.565 384.56 846.461 286.233 745.329C187.905 644.197 173.343 457.438 193.454 437.884Z" fill="url(#paint10_linear_279_729)"/>
</g>
<g opacity="0.5" filter="url(#filter35_f_279_729)">
<path d="M900.37 492.971C900.37 692.069 738.969 853.471 539.87 853.471C340.772 853.471 179.37 692.069 179.37 492.971C179.37 293.872 340.772 132.471 539.87 132.471C738.969 132.471 900.37 293.872 900.37 492.971ZM198.626 492.971C198.626 681.435 351.406 834.215 539.87 834.215C728.335 834.215 881.115 681.435 881.115 492.971C881.115 304.506 728.335 151.726 539.87 151.726C351.406 151.726 198.626 304.506 198.626 492.971Z" fill="black"/>
</g>
</g>
<defs>
<filter id="filter0_f_279_729" x="112.232" y="411.012" width="551.004" height="499.11" filterUnits="userSpaceOnUse" color-interpolation-filters="sRGB">
<feFlood flood-opacity="0" result="BackgroundImageFix"/>
<feBlend mode="normal" in="SourceGraphic" in2="BackgroundImageFix" result="shape"/>
<feGaussianBlur stdDeviation="30" result="effect1_foregroundBlur_279_729"/>
</filter>
<filter id="filter1_f_279_729" x="145.293" y="527.582" width="394.952" height="346.625" filterUnits="userSpaceOnUse" color-interpolation-filters="sRGB">
<feFlood flood-opacity="0" result="BackgroundImageFix"/>
<feBlend mode="normal" in="SourceGraphic" in2="BackgroundImageFix" result="shape"/>
<feGaussianBlur stdDeviation="30" result="effect1_foregroundBlur_279_729"/>
</filter>
<filter id="filter2_f_279_729" x="0.700378" y="88.4358" width="991.466" height="991.466" filterUnits="userSpaceOnUse" color-interpolation-filters="sRGB">
<feFlood flood-opacity="0" result="BackgroundImageFix"/>
<feBlend mode="normal" in="SourceGraphic" in2="BackgroundImageFix" result="shape"/>
<feGaussianBlur stdDeviation="60" result="effect1_foregroundBlur_279_729"/>
</filter>
<filter id="filter3_f_279_729" x="55.0723" y="152.963" width="861.397" height="862.412" filterUnits="userSpaceOnUse" color-interpolation-filters="sRGB">
<feFlood flood-opacity="0" result="BackgroundImageFix"/>
<feBlend mode="normal" in="SourceGraphic" in2="BackgroundImageFix" result="shape"/>
<feGaussianBlur stdDeviation="45" result="effect1_foregroundBlur_279_729"/>
</filter>
<filter id="filter4_f_279_729" x="112.854" y="68.6213" width="917.479" height="737.586" filterUnits="userSpaceOnUse" color-interpolation-filters="sRGB">
<feFlood flood-opacity="0" result="BackgroundImageFix"/>
<feBlend mode="normal" in="SourceGraphic" in2="BackgroundImageFix" result="shape"/>
<feGaussianBlur stdDeviation="70" result="effect1_foregroundBlur_279_729"/>
</filter>
<filter id="filter5_f_279_729" x="211.864" y="-76.6591" width="901.826" height="860.558" filterUnits="userSpaceOnUse" color-interpolation-filters="sRGB">
<feFlood flood-opacity="0" result="BackgroundImageFix"/>
<feBlend mode="normal" in="SourceGraphic" in2="BackgroundImageFix" result="shape"/>
<feGaussianBlur stdDeviation="100" result="effect1_foregroundBlur_279_729"/>
</filter>
<filter id="filter6_f_279_729" x="94.4322" y="-54.6923" width="990.427" height="958.525" filterUnits="userSpaceOnUse" color-interpolation-filters="sRGB">
<feFlood flood-opacity="0" result="BackgroundImageFix"/>
<feBlend mode="normal" in="SourceGraphic" in2="BackgroundImageFix" result="shape"/>
<feGaussianBlur stdDeviation="100" result="effect1_foregroundBlur_279_729"/>
</filter>
<filter id="filter7_f_279_729" x="270.639" y="-72.6112" width="815.288" height="781.136" filterUnits="userSpaceOnUse" color-interpolation-filters="sRGB">
<feFlood flood-opacity="0" result="BackgroundImageFix"/>
<feBlend mode="normal" in="SourceGraphic" in2="BackgroundImageFix" result="shape"/>
<feGaussianBlur stdDeviation="100" result="effect1_foregroundBlur_279_729"/>
</filter>
<filter id="filter8_f_279_729" x="109.051" y="352.361" width="620.332" height="619.704" filterUnits="userSpaceOnUse" color-interpolation-filters="sRGB">
<feFlood flood-opacity="0" result="BackgroundImageFix"/>
<feBlend mode="normal" in="SourceGraphic" in2="BackgroundImageFix" result="shape"/>
<feGaussianBlur stdDeviation="50" result="effect1_foregroundBlur_279_729"/>
</filter>
<filter id="filter9_f_279_729" x="141.605" y="510.046" width="481.717" height="390.571" filterUnits="userSpaceOnUse" color-interpolation-filters="sRGB">
<feFlood flood-opacity="0" result="BackgroundImageFix"/>
<feBlend mode="normal" in="SourceGraphic" in2="BackgroundImageFix" result="shape"/>
<feGaussianBlur stdDeviation="25" result="effect1_foregroundBlur_279_729"/>
</filter>
<filter id="filter10_f_279_729" x="90.7484" y="44.2906" width="569.838" height="575.841" filterUnits="userSpaceOnUse" color-interpolation-filters="sRGB">
<feFlood flood-opacity="0" result="BackgroundImageFix"/>
<feBlend mode="normal" in="SourceGraphic" in2="BackgroundImageFix" result="shape"/>
<feGaussianBlur stdDeviation="60" result="effect1_foregroundBlur_279_729"/>
</filter>
<filter id="filter11_f_279_729" x="207.596" y="231.005" width="262.309" height="234.316" filterUnits="userSpaceOnUse" color-interpolation-filters="sRGB">
<feFlood flood-opacity="0" result="BackgroundImageFix"/>
<feBlend mode="normal" in="SourceGraphic" in2="BackgroundImageFix" result="shape"/>
<feGaussianBlur stdDeviation="15" result="effect1_foregroundBlur_279_729"/>
</filter>
<filter id="filter12_f_279_729" x="130.946" y="90.6641" width="432.961" height="431.478" filterUnits="userSpaceOnUse" color-interpolation-filters="sRGB">
<feFlood flood-opacity="0" result="BackgroundImageFix"/>
<feBlend mode="normal" in="SourceGraphic" in2="BackgroundImageFix" result="shape"/>
<feGaussianBlur stdDeviation="20" result="effect1_foregroundBlur_279_729"/>
</filter>
<filter id="filter13_f_279_729" x="110.833" y="70.542" width="421.511" height="425.222" filterUnits="userSpaceOnUse" color-interpolation-filters="sRGB">
<feFlood flood-opacity="0" result="BackgroundImageFix"/>
<feBlend mode="normal" in="SourceGraphic" in2="BackgroundImageFix" result="shape"/>
<feGaussianBlur stdDeviation="50" result="effect1_foregroundBlur_279_729"/>
</filter>
<filter id="filter14_f_279_729" x="88.4024" y="72.8359" width="536.632" height="483.68" filterUnits="userSpaceOnUse" color-interpolation-filters="sRGB">
<feFlood flood-opacity="0" result="BackgroundImageFix"/>
<feBlend mode="normal" in="SourceGraphic" in2="BackgroundImageFix" result="shape"/>
<feGaussianBlur stdDeviation="60" result="effect1_foregroundBlur_279_729"/>
</filter>
<filter id="filter15_f_279_729" x="126.637" y="123.843" width="446.894" height="523.592" filterUnits="userSpaceOnUse" color-interpolation-filters="sRGB">
<feFlood flood-opacity="0" result="BackgroundImageFix"/>
<feBlend mode="normal" in="SourceGraphic" in2="BackgroundImageFix" result="shape"/>
<feGaussianBlur stdDeviation="60" result="effect1_foregroundBlur_279_729"/>
</filter>
<filter id="filter16_f_279_729" x="182.28" y="119.84" width="547.331" height="487.033" filterUnits="userSpaceOnUse" color-interpolation-filters="sRGB">
<feFlood flood-opacity="0" result="BackgroundImageFix"/>
<feBlend mode="normal" in="SourceGraphic" in2="BackgroundImageFix" result="shape"/>
<feGaussianBlur stdDeviation="50" result="effect1_foregroundBlur_279_729"/>
</filter>
<filter id="filter17_f_279_729" x="153.298" y="114.678" width="350.131" height="349.164" filterUnits="userSpaceOnUse" color-interpolation-filters="sRGB">
<feFlood flood-opacity="0" result="BackgroundImageFix"/>
<feBlend mode="normal" in="SourceGraphic" in2="BackgroundImageFix" result="shape"/>
<feGaussianBlur stdDeviation="30" result="effect1_foregroundBlur_279_729"/>
</filter>
<filter id="filter18_f_279_729" x="296.908" y="-29.9211" width="745.607" height="710.194" filterUnits="userSpaceOnUse" color-interpolation-filters="sRGB">
<feFlood flood-opacity="0" result="BackgroundImageFix"/>
<feBlend mode="normal" in="SourceGraphic" in2="BackgroundImageFix" result="shape"/>
<feGaussianBlur stdDeviation="100" result="effect1_foregroundBlur_279_729"/>
</filter>
<filter id="filter19_f_279_729" x="476.096" y="117.232" width="447.388" height="427.044" filterUnits="userSpaceOnUse" color-interpolation-filters="sRGB">
<feFlood flood-opacity="0" result="BackgroundImageFix"/>
<feBlend mode="normal" in="SourceGraphic" in2="BackgroundImageFix" result="shape"/>
<feGaussianBlur stdDeviation="50" result="effect1_foregroundBlur_279_729"/>
</filter>
<filter id="filter20_f_279_729" x="499.316" y="151.157" width="376.106" height="330.842" filterUnits="userSpaceOnUse" color-interpolation-filters="sRGB">
<feFlood flood-opacity="0" result="BackgroundImageFix"/>
<feBlend mode="normal" in="SourceGraphic" in2="BackgroundImageFix" result="shape"/>
<feGaussianBlur stdDeviation="20" result="effect1_foregroundBlur_279_729"/>
</filter>
<filter id="filter21_f_279_729" x="306.335" y="114.23" width="544.389" height="518.055" filterUnits="userSpaceOnUse" color-interpolation-filters="sRGB">
<feFlood flood-opacity="0" result="BackgroundImageFix"/>
<feBlend mode="normal" in="SourceGraphic" in2="BackgroundImageFix" result="shape"/>
<feGaussianBlur stdDeviation="50" result="effect1_foregroundBlur_279_729"/>
</filter>
<filter id="filter22_f_279_729" x="260.691" y="90.2173" width="618.218" height="586.33" filterUnits="userSpaceOnUse" color-interpolation-filters="sRGB">
<feFlood flood-opacity="0" result="BackgroundImageFix"/>
<feBlend mode="normal" in="SourceGraphic" in2="BackgroundImageFix" result="shape"/>
<feGaussianBlur stdDeviation="85" result="effect1_foregroundBlur_279_729"/>
</filter>
<filter id="filter23_f_279_729" x="471.031" y="79.1892" width="498.66" height="593.105" filterUnits="userSpaceOnUse" color-interpolation-filters="sRGB">
<feFlood flood-opacity="0" result="BackgroundImageFix"/>
<feBlend mode="normal" in="SourceGraphic" in2="BackgroundImageFix" result="shape"/>
<feGaussianBlur stdDeviation="50" result="effect1_foregroundBlur_279_729"/>
</filter>
<filter id="filter24_f_279_729" x="594.895" y="166.578" width="311.694" height="544.269" filterUnits="userSpaceOnUse" color-interpolation-filters="sRGB">
<feFlood flood-opacity="0" result="BackgroundImageFix"/>
<feBlend mode="normal" in="SourceGraphic" in2="BackgroundImageFix" result="shape"/>
<feGaussianBlur stdDeviation="30" result="effect1_foregroundBlur_279_729"/>
</filter>
<filter id="filter25_f_279_729" x="529.796" y="168.033" width="348.631" height="426.579" filterUnits="userSpaceOnUse" color-interpolation-filters="sRGB">
<feFlood flood-opacity="0" result="BackgroundImageFix"/>
<feBlend mode="normal" in="SourceGraphic" in2="BackgroundImageFix" result="shape"/>
<feGaussianBlur stdDeviation="10" result="effect1_foregroundBlur_279_729"/>
</filter>
<filter id="filter26_f_279_729" x="520.399" y="150.653" width="362.115" height="397.046" filterUnits="userSpaceOnUse" color-interpolation-filters="sRGB">
<feFlood flood-opacity="0" result="BackgroundImageFix"/>
<feBlend mode="normal" in="SourceGraphic" in2="BackgroundImageFix" result="shape"/>
<feGaussianBlur stdDeviation="15" result="effect1_foregroundBlur_279_729"/>
</filter>
<filter id="filter27_f_279_729" x="613.172" y="204.229" width="252.58" height="285.14" filterUnits="userSpaceOnUse" color-interpolation-filters="sRGB">
<feFlood flood-opacity="0" result="BackgroundImageFix"/>
<feBlend mode="normal" in="SourceGraphic" in2="BackgroundImageFix" result="shape"/>
<feGaussianBlur stdDeviation="10" result="effect1_foregroundBlur_279_729"/>
</filter>
<filter id="filter28_f_279_729" x="491.031" y="428.177" width="446.53" height="458.4" filterUnits="userSpaceOnUse" color-interpolation-filters="sRGB">
<feFlood flood-opacity="0" result="BackgroundImageFix"/>
<feBlend mode="normal" in="SourceGraphic" in2="BackgroundImageFix" result="shape"/>
<feGaussianBlur stdDeviation="30" result="effect1_foregroundBlur_279_729"/>
</filter>
<filter id="filter29_f_279_729" x="123.817" y="346.575" width="551.326" height="567.214" filterUnits="userSpaceOnUse" color-interpolation-filters="sRGB">
<feFlood flood-opacity="0" result="BackgroundImageFix"/>
<feBlend mode="normal" in="SourceGraphic" in2="BackgroundImageFix" result="shape"/>
<feGaussianBlur stdDeviation="30" result="effect1_foregroundBlur_279_729"/>
</filter>
<filter id="filter30_f_279_729" x="231.651" y="664.459" width="605.228" height="228.165" filterUnits="userSpaceOnUse" color-interpolation-filters="sRGB">
<feFlood flood-opacity="0" result="BackgroundImageFix"/>
<feBlend mode="normal" in="SourceGraphic" in2="BackgroundImageFix" result="shape"/>
<feGaussianBlur stdDeviation="25" result="effect1_foregroundBlur_279_729"/>
</filter>
<filter id="filter31_f_279_729" x="538.48" y="468.234" width="360.438" height="384.12" filterUnits="userSpaceOnUse" color-interpolation-filters="sRGB">
<feFlood flood-opacity="0" result="BackgroundImageFix"/>
<feBlend mode="normal" in="SourceGraphic" in2="BackgroundImageFix" result="shape"/>
<feGaussianBlur stdDeviation="10" result="effect1_foregroundBlur_279_729"/>
</filter>
<filter id="filter32_f_279_729" x="101.357" y="52.4705" width="881" height="881" filterUnits="userSpaceOnUse" color-interpolation-filters="sRGB">
<feFlood flood-opacity="0" result="BackgroundImageFix"/>
<feBlend mode="normal" in="SourceGraphic" in2="BackgroundImageFix" result="shape"/>
<feGaussianBlur stdDeviation="40" result="effect1_foregroundBlur_279_729"/>
</filter>
<filter id="filter33_f_279_729" x="131.357" y="82.4705" width="821" height="821" filterUnits="userSpaceOnUse" color-interpolation-filters="sRGB">
<feFlood flood-opacity="0" result="BackgroundImageFix"/>
<feBlend mode="normal" in="SourceGraphic" in2="BackgroundImageFix" result="shape"/>
<feGaussianBlur stdDeviation="25" result="effect1_foregroundBlur_279_729"/>
</filter>
<filter id="filter34_f_279_729" x="155.638" y="407.884" width="453.28" height="472.364" filterUnits="userSpaceOnUse" color-interpolation-filters="sRGB">
<feFlood flood-opacity="0" result="BackgroundImageFix"/>
<feBlend mode="normal" in="SourceGraphic" in2="BackgroundImageFix" result="shape"/>
<feGaussianBlur stdDeviation="15" result="effect1_foregroundBlur_279_729"/>
</filter>
<filter id="filter35_f_279_729" x="159.37" y="112.471" width="761" height="761" filterUnits="userSpaceOnUse" color-interpolation-filters="sRGB">
<feFlood flood-opacity="0" result="BackgroundImageFix"/>
<feBlend mode="normal" in="SourceGraphic" in2="BackgroundImageFix" result="shape"/>
<feGaussianBlur stdDeviation="10" result="effect1_foregroundBlur_279_729"/>
</filter>
<linearGradient id="paint0_linear_279_729" x1="342.769" y1="628.465" x2="342.769" y2="773.324" gradientUnits="userSpaceOnUse">
<stop stop-color="#F17840"/>
<stop offset="1" stop-color="#F17840" stop-opacity="0.52"/>
</linearGradient>
<radialGradient id="paint1_radial_279_729" cx="0" cy="0" r="1" gradientUnits="userSpaceOnUse" gradientTransform="translate(496.433 492.407) rotate(90) scale(467.495)">
<stop/>
<stop offset="1"/>
</radialGradient>
<radialGradient id="paint2_radial_279_729" cx="0" cy="0" r="1" gradientUnits="userSpaceOnUse" gradientTransform="translate(485.771 500.84) rotate(90) scale(424.536 423.904)">
<stop/>
<stop offset="1"/>
</radialGradient>
<linearGradient id="paint3_linear_279_729" x1="521.258" y1="243.496" x2="269.843" y2="584.479" gradientUnits="userSpaceOnUse">
<stop stop-color="#7F30FF"/>
<stop offset="1" stop-color="#7F30FF" stop-opacity="0"/>
</linearGradient>
<linearGradient id="paint4_linear_279_729" x1="800.44" y1="310.754" x2="693.614" y2="376.918" gradientUnits="userSpaceOnUse">
<stop stop-color="white"/>
<stop offset="1" stop-color="white" stop-opacity="0"/>
</linearGradient>
<linearGradient id="paint5_linear_279_729" x1="862.115" y1="508.69" x2="576.32" y2="213.033" gradientUnits="userSpaceOnUse">
<stop stop-color="white"/>
<stop offset="0.735428" stop-color="white"/>
<stop offset="1" stop-color="white" stop-opacity="0"/>
</linearGradient>
<linearGradient id="paint6_linear_279_729" x1="862.113" y1="508.69" x2="576.319" y2="213.033" gradientUnits="userSpaceOnUse">
<stop stop-color="white"/>
<stop offset="0.735428" stop-color="white"/>
<stop offset="1" stop-color="white" stop-opacity="0"/>
</linearGradient>
<linearGradient id="paint7_linear_279_729" x1="110.82" y1="352.037" x2="540.328" y2="947.12" gradientUnits="userSpaceOnUse">
<stop stop-color="#F17840"/>
<stop offset="1" stop-color="#F17840"/>
</linearGradient>
<radialGradient id="paint8_radial_279_729" cx="0" cy="0" r="1" gradientUnits="userSpaceOnUse" gradientTransform="translate(541.857 404.929) rotate(90) scale(448.541)">
<stop/>
<stop offset="1" stop-color="#979797"/>
</radialGradient>
<linearGradient id="paint9_linear_279_729" x1="313.441" y1="177.161" x2="743.459" y2="818.712" gradientUnits="userSpaceOnUse">
<stop stop-color="#7F30FF"/>
<stop offset="1" stop-color="#7F30FF"/>
</linearGradient>
<linearGradient id="paint10_linear_279_729" x1="93.188" y1="393.213" x2="532.914" y2="1002.98" gradientUnits="userSpaceOnUse">
<stop stop-color="#F17840"/>
<stop offset="1" stop-color="#F17840" stop-opacity="0.75"/>
</linearGradient>
</defs>
</svg>
