<svg version="1.1" id="Layer_1" xmlns="http://www.w3.org/2000/svg" xmlns:xlink="http://www.w3.org/1999/xlink" x="0px" y="0px" viewBox="0 0 500 500" style="width: 188px;" xml:space="preserve" data-imageid="ui-design-65" imageName="UI Design" class="illustrations_image">
<style type="text/css">
	.st0_ui-design-65{fill:#68E1FD;}
	.st1_ui-design-65{fill:#093F68;}
	.st2_ui-design-65{fill:#FFFFFF;}
	.st3_ui-design-65{fill:#FFBC0E;}
	.st4_ui-design-65{fill:#DFEAEF;}
	.st5_ui-design-65{fill:#70CC40;}
	.st6_ui-design-65{fill:#F56132;}
	.st7_ui-design-65{fill:none;}
</style>
<g id="PC_ui-design-65">
	<path class="st0_ui-design-65 targetColor" d="M167,130.8h239.7c8.4,0,15.1,6.8,15.1,15.1v153.7c0,8.4-6.8,15.1-15.1,15.1H167c-8.4,0-15.1-6.8-15.1-15.1&#10;&#9;&#9;V145.9C151.9,137.5,158.6,130.8,167,130.8z" style="fill: rgb(104, 225, 253);"/>
	<path class="st1_ui-design-65" d="M406.1,316.6H167.6c-9.7,0-17.6-7.9-17.6-17.6V146.5c0-9.7,7.9-17.6,17.6-17.6h238.5c9.7,0,17.6,7.9,17.6,17.6&#10;&#9;&#9;V299C423.7,308.7,415.8,316.6,406.1,316.6z M167.6,132.6c-7.7,0-13.9,6.2-13.9,13.9V299c0,7.7,6.2,13.9,13.9,13.9h238.5&#10;&#9;&#9;c7.7,0,13.9-6.2,13.9-13.9V146.5c0-7.7-6.2-13.9-13.9-13.9L167.6,132.6z"/>
	<polygon class="st0_ui-design-65 targetColor" points="330,354.3 243.7,354.3 252.7,314.8 321,314.8 &#9;" style="fill: rgb(104, 225, 253);"/>
	<path class="st1_ui-design-65" d="M330,356.2h-86.3c-1,0-1.8-0.8-1.8-1.8c0-0.1,0-0.3,0-0.4l9-39.6c0.2-0.8,0.9-1.4,1.8-1.4H321&#10;&#9;&#9;c0.9,0,1.6,0.6,1.8,1.4l9,39.6c0.1,0.5,0,1.1-0.4,1.5C331.1,355.9,330.6,356.2,330,356.2z M246,352.5h81.7l-8.2-35.9h-65.3&#10;&#9;&#9;L246,352.5z"/>
	<rect x="170.3" y="146.1" class="st2_ui-design-65" width="233.2" height="136.6"/>
	<path class="st1_ui-design-65" d="M403.5,284.5H170.3c-1,0-1.8-0.8-1.8-1.8V146.1c0-1,0.8-1.8,1.8-1.8h233.2c1,0,1.8,0.8,1.8,1.8v136.6&#10;&#9;&#9;C405.3,283.7,404.5,284.5,403.5,284.5z M172.1,280.8h229.5V147.9H172.1V280.8z"/>
	<path class="st0_ui-design-65 targetColor" d="M229.8,354.3H344c2.2,0,4,1.8,4,4v6.8c0,2.2-1.8,4-4,4H229.8c-2.2,0-4-1.8-4-4v-6.8&#10;&#9;&#9;C225.7,356.1,227.5,354.3,229.8,354.3z" style="fill: rgb(104, 225, 253);"/>
	<path class="st1_ui-design-65" d="M340.6,371H233.1c-5.1-0.2-9.1-4.4-8.9-9.5c0.2-4.9,4.1-8.8,8.9-8.9h107.5c5.1-0.2,9.4,3.8,9.5,8.9&#10;&#9;&#9;s-3.8,9.4-8.9,9.5C341,371,340.8,371,340.6,371z M233.1,356.2c-3.1,0-5.6,2.5-5.6,5.6c0,3.1,2.5,5.6,5.6,5.6h107.5&#10;&#9;&#9;c3.1,0,5.6-2.5,5.6-5.6c0-3.1-2.5-5.6-5.6-5.6H233.1z"/>
	<path class="st1_ui-design-65" d="M402.4,165h-231c-1,0-1.8-0.8-1.8-1.8c0-1,0.8-1.8,1.8-1.8h231c1,0,1.8,0.8,1.8,1.8&#10;&#9;&#9;C404.2,164.2,403.4,165,402.4,165C402.4,165,402.4,165,402.4,165z"/>
	<circle class="st3_ui-design-65" cx="182.9" cy="154.8" r="3.6"/>
	<circle class="st1_ui-design-65" cx="196.8" cy="154.8" r="3.6"/>
	<circle class="st1_ui-design-65" cx="210.7" cy="154.8" r="3.6"/>
	<rect x="196.8" y="174.2" class="st3_ui-design-65" width="99.5" height="40.2"/>
	<path class="st1_ui-design-65" d="M296.2,216.2h-99.5c-1,0-1.8-0.8-1.8-1.8v-40.2c0-1,0.8-1.8,1.8-1.8h99.5c1,0,1.8,0.8,1.8,1.8v40.2&#10;&#9;&#9;C298.1,215.4,297.2,216.2,296.2,216.2z M198.6,212.5h95.8V176h-95.8V212.5z"/>
	<path class="st1_ui-design-65" d="M196.8,216.2c-1,0-1.8-0.8-1.8-1.8c0-0.5,0.2-1.1,0.7-1.4l32.6-26.8c0.7-0.6,1.7-0.6,2.4,0l26,21.6&#10;&#9;&#9;c0.8,0.7,0.9,1.8,0.2,2.6c-0.7,0.8-1.8,0.9-2.6,0.2l0,0l-24.8-20.7l-31.5,25.9C197.6,216.1,197.2,216.2,196.8,216.2z"/>
	<path class="st1_ui-design-65" d="M296.2,216.2c-0.4,0-0.8-0.1-1.1-0.4l-29.4-23.3l-14.9,13.2c-0.8,0.7-1.9,0.6-2.6-0.2&#10;&#9;&#9;c-0.7-0.8-0.6-1.9,0.2-2.6l16.1-14.2c0.7-0.6,1.7-0.6,2.4-0.1l30.6,24.3c0.8,0.6,0.9,1.8,0.3,2.6&#10;&#9;&#9;C297.3,216,296.8,216.2,296.2,216.2z"/>
	<path class="st4_ui-design-65" d="M372.5,177.9h-57.1c-1,0-1.8-0.8-1.8-1.8c0-1,0.8-1.8,1.8-1.8c0,0,0,0,0,0h57c1,0,1.8,0.8,1.8,1.8&#10;&#9;&#9;C374.4,177,373.5,177.8,372.5,177.9C372.5,177.9,372.5,177.9,372.5,177.9L372.5,177.9z"/>
	<path class="st4_ui-design-65" d="M372.5,194.1h-57.1c-1,0-1.8-0.8-1.8-1.8c0-1,0.8-1.8,1.8-1.8c0,0,0,0,0,0h57c1,0,1.8,0.8,1.8,1.8&#10;&#9;&#9;C374.4,193.3,373.5,194.1,372.5,194.1C372.5,194.1,372.5,194.1,372.5,194.1L372.5,194.1z"/>
	<path class="st4_ui-design-65" d="M360.4,210.4h-44.9c-1,0-1.8-0.8-1.8-1.8c0-1,0.8-1.8,1.8-1.8c0,0,0,0,0,0h44.9c1,0,1.8,0.8,1.8,1.8&#10;&#9;&#9;C362.2,209.5,361.4,210.4,360.4,210.4C360.4,210.4,360.4,210.4,360.4,210.4z"/>
	<rect x="196.8" y="227.8" class="st5_ui-design-65" width="42.4" height="29.8"/>
	<path class="st1_ui-design-65" d="M239.2,259.4h-42.4c-1,0-1.8-0.8-1.8-1.8v-29.8c0-1,0.8-1.8,1.8-1.8h42.4c1,0,1.8,0.8,1.8,1.8v29.8&#10;&#9;&#9;C241,258.6,240.2,259.4,239.2,259.4z M198.6,255.7h38.7v-26.1h-38.7V255.7z"/>
	<rect x="265" y="227.8" class="st5_ui-design-65" width="42.4" height="29.8"/>
	<path class="st1_ui-design-65" d="M307.5,259.4H265c-1,0-1.8-0.8-1.8-1.8v-29.8c0-1,0.8-1.8,1.8-1.8h42.4c1,0,1.8,0.8,1.8,1.8v29.8&#10;&#9;&#9;C309.3,258.6,308.5,259.4,307.5,259.4z M266.9,255.7h38.7v-26.1h-38.7V255.7z"/>
	<rect x="333.3" y="227.8" class="st5_ui-design-65" width="42.4" height="29.8"/>
	<path class="st1_ui-design-65" d="M375.7,259.4h-42.4c-1,0-1.8-0.8-1.8-1.8v-29.8c0-1,0.8-1.8,1.8-1.8h42.4c1,0,1.8,0.8,1.8,1.8v29.8&#10;&#9;&#9;C377.6,258.6,376.7,259.4,375.7,259.4z M335.1,255.7h38.7v-26.1h-38.7V255.7z"/>
	<path class="st4_ui-design-65" d="M227.1,273.3h-18.3c-1,0-1.8-0.8-1.8-1.8c0-1,0.8-1.8,1.8-1.8h18.3c1,0,1.8,0.8,1.8,1.8&#10;&#9;&#9;C228.9,272.5,228.1,273.3,227.1,273.3z"/>
	<path class="st4_ui-design-65" d="M295.4,273.3h-18.3c-1,0-1.8-0.8-1.8-1.8c0-1,0.8-1.8,1.8-1.8h18.3c1,0,1.8,0.8,1.8,1.8&#10;&#9;&#9;C297.2,272.5,296.4,273.3,295.4,273.3z"/>
	<path class="st4_ui-design-65" d="M363.6,273.3h-18.3c-1,0-1.8-0.8-1.8-1.8c0-1,0.8-1.8,1.8-1.8c0,0,0,0,0,0h18.3c1,0,1.8,0.8,1.8,1.8&#10;&#9;&#9;C365.5,272.5,364.7,273.3,363.6,273.3C363.6,273.3,363.6,273.3,363.6,273.3z"/>
</g>
<g id="mobile_ui-design-65">
	<path class="st0_ui-design-65 targetColor" d="M65.4,181.8h110.2c2.9,0,5.3,2.4,5.3,5.3v176.7c0,2.9-2.4,5.3-5.3,5.3H65.4c-2.9,0-5.3-2.4-5.3-5.3V187.1&#10;&#9;&#9;C60.1,184.2,62.4,181.8,65.4,181.8z" style="fill: rgb(104, 225, 253);"/>
	<path class="st1_ui-design-65" d="M171.1,371H69.9c-6.4,0-11.6-5.2-11.6-11.6V191.6c0-6.4,5.2-11.6,11.6-11.6h101.2c6.4,0,11.6,5.2,11.6,11.6&#10;&#9;&#9;v167.8C182.7,365.8,177.5,371,171.1,371z M69.9,183.6c-4.4,0-8,3.6-8,8v167.7c0,4.4,3.6,8,8,8h101.2c4.4,0,8-3.6,8-8V191.6&#10;&#9;&#9;c0-4.4-3.6-8-8-8L69.9,183.6z"/>
	<path class="st2_ui-design-65" d="M72.8,206.6h95.4c1.4,0,2.6,1.1,2.6,2.6v129.5c0,1.4-1.1,2.6-2.6,2.6H72.8c-1.4,0-2.6-1.1-2.6-2.6V209.2&#10;&#9;&#9;C70.2,207.8,71.4,206.6,72.8,206.6z"/>
	<path class="st1_ui-design-65" d="M166,343.1H75c-3.6,0-6.5-2.9-6.6-6.5V211.4c0-3.6,2.9-6.5,6.6-6.6h91c3.6,0,6.5,2.9,6.6,6.6v125.2&#10;&#9;&#9;C172.5,340.2,169.6,343.1,166,343.1z M75,208.5c-1.6,0-2.9,1.3-2.9,2.9v125.2c0,1.6,1.3,2.9,2.9,2.9h91c1.6,0,2.9-1.3,2.9-2.9&#10;&#9;&#9;V211.4c0-1.6-1.3-2.9-2.9-2.9H75z"/>
	<circle class="st1_ui-design-65" cx="104.9" cy="192.2" r="1.6"/>
	<path class="st1_ui-design-65" d="M137.7,194.1h-25.2c-1-0.1-1.8-1-1.7-2c0.1-0.9,0.8-1.6,1.7-1.7h25.2c1-0.1,1.9,0.7,2,1.7s-0.7,1.9-1.7,2&#10;&#9;&#9;C137.8,194.1,137.8,194.1,137.7,194.1z"/>
	<circle class="st1_ui-design-65" cx="120.5" cy="357.6" r="6.6"/>
	<rect x="82.4" y="221.1" class="st6_ui-design-65" width="76.3" height="48.1"/>
	<path class="st1_ui-design-65" d="M158.7,271H82.4c-1,0-1.8-0.8-1.8-1.8v-48.1c0-1,0.8-1.8,1.8-1.8h76.3c1,0,1.8,0.8,1.8,1.8v48.1&#10;&#9;&#9;C160.5,270.2,159.7,271,158.7,271z M84.3,267.3h72.6V223H84.3L84.3,267.3z"/>
	<path class="st5_ui-design-65" d="M89.9,312.1h61.4c4.1,0,7.5,3.3,7.5,7.5v1.1c0,4.1-3.3,7.5-7.5,7.5H89.9c-4.1,0-7.5-3.3-7.5-7.5v-1.1&#10;&#9;&#9;C82.4,315.5,85.8,312.1,89.9,312.1z"/>
	<path class="st1_ui-design-65" d="M150.7,330H90.4c-5.4-0.2-9.7-4.7-9.5-10.2c0.2-5.2,4.3-9.4,9.5-9.5h60.3c5.4,0.2,9.7,4.7,9.5,10.2&#10;&#9;&#9;C160.1,325.7,155.9,329.8,150.7,330z M90.4,314c-3.4-0.1-6.3,2.5-6.4,5.9c-0.1,3.4,2.5,6.3,5.9,6.4c0.2,0,0.3,0,0.5,0h60.3&#10;&#9;&#9;c3.4,0.1,6.3-2.5,6.4-5.9c0.1-3.4-2.5-6.3-5.9-6.4c-0.2,0-0.3,0-0.5,0H90.4z"/>
	<path class="st4_ui-design-65" d="M158.7,284.5H82.4c-1,0-1.8-0.8-1.8-1.8c0-1,0.8-1.8,1.8-1.8c0,0,0,0,0,0h76.3c1,0,1.8,0.8,1.8,1.8&#10;&#9;&#9;C160.6,283.7,159.7,284.5,158.7,284.5z"/>
	<path class="st4_ui-design-65" d="M141.6,299.2H82.4c-1,0-1.8-0.8-1.8-1.8c0-1,0.8-1.8,1.8-1.8c0,0,0,0,0,0h59.1c1,0,1.8,0.8,1.8,1.8&#10;&#9;&#9;C143.4,298.4,142.6,299.2,141.6,299.2C141.6,299.2,141.6,299.2,141.6,299.2z"/>
	<path class="st1_ui-design-65" d="M133.7,264.6c-0.5,0-1-0.2-1.4-0.6l-23-26.5l-24.4,25.5c-0.7,0.7-1.9,0.7-2.6,0c-0.7-0.7-0.7-1.8-0.1-2.5&#10;&#9;&#9;l25.7-26.9c0.4-0.4,0.9-0.6,1.4-0.6c0.5,0,1,0.3,1.3,0.6l24.3,28c0.7,0.8,0.6,1.9-0.2,2.6C134.5,264.4,134.1,264.6,133.7,264.6&#10;&#9;&#9;L133.7,264.6z"/>
	<path class="st1_ui-design-65" d="M158.7,259.6c-0.4,0-0.9-0.2-1.2-0.4l-15.9-13.5l-12.2,12c-0.7,0.7-1.9,0.8-2.6,0.1c-0.7-0.7-0.8-1.9-0.1-2.6&#10;&#9;&#9;c0,0,0.1-0.1,0.1-0.1l13.5-13.1c0.7-0.7,1.8-0.7,2.5-0.1l17.1,14.5c0.8,0.7,0.9,1.8,0.2,2.6C159.8,259.4,159.2,259.7,158.7,259.6&#10;&#9;&#9;L158.7,259.6z"/>
</g>
<g id="line_ui-design-65">
	<path class="st1_ui-design-65" d="M47.4,371c-0.9,0-1.6-0.7-1.7-1.5c-0.1-1,0.5-2,1.6-2.2c1.9-0.4,304.4-0.1,397.1,0c1,0,1.8,0.8,1.8,1.8&#10;&#9;&#9;c0,1-0.8,1.8-1.8,1.8l0,0c-3.9,0-391.2-0.4-396.6,0C47.6,371,47.5,371,47.4,371z"/>
</g>
<g id="tab_ui-design-65">
	<path class="st2_ui-design-65" d="M382.8,275.5h58.8c1.5,0,2.7,1.2,2.7,2.7v43.6c0,1.5-1.2,2.7-2.7,2.7h-58.8c-1.5,0-2.7-1.2-2.7-2.7v-43.6&#10;&#9;&#9;C380.1,276.7,381.3,275.5,382.8,275.5z"/>
	<path class="st1_ui-design-65" d="M439.3,326.4h-54.2c-3.8,0-6.8-3.1-6.8-6.8v-39.1c0-3.8,3.1-6.8,6.8-6.8h54.2c3.8,0,6.8,3.1,6.8,6.8v39.1&#10;&#9;&#9;C446.2,323.3,443.1,326.4,439.3,326.4z M385.1,277.3c-1.7,0-3.2,1.4-3.2,3.2l0,0v39.1c0,1.7,1.4,3.2,3.2,3.2h54.2&#10;&#9;&#9;c1.7,0,3.1-1.4,3.1-3.2v-39.1c0-1.7-1.4-3.2-3.1-3.2c0,0,0,0,0,0H385.1z"/>
	<path class="st4_ui-design-65" d="M433.2,290.4h-39.4c-1,0-1.8-0.8-1.8-1.8c0-1,0.8-1.8,1.8-1.8c0,0,0,0,0,0h39.4c1,0,1.8,0.8,1.8,1.8&#10;&#9;&#9;C435,289.5,434.2,290.4,433.2,290.4z"/>
	<path class="st4_ui-design-65" d="M433.2,301.8h-39.4c-1,0-1.8-0.8-1.8-1.8c0-1,0.8-1.8,1.8-1.8c0,0,0,0,0,0h39.4c1,0,1.8,0.8,1.8,1.8&#10;&#9;&#9;C435,301,434.2,301.8,433.2,301.8C433.2,301.8,433.2,301.8,433.2,301.8z"/>
	<path class="st4_ui-design-65" d="M422.4,313.3h-28.6c-1,0.1-1.9-0.7-2-1.7c-0.1-1,0.7-1.9,1.7-2c0.1,0,0.2,0,0.3,0h28.6c1-0.1,1.9,0.7,2,1.7&#10;&#9;&#9;c0.1,1-0.7,1.9-1.7,2C422.6,313.3,422.5,313.3,422.4,313.3z"/>
</g>
<g id="cursor_ui-design-65">
	<polygon class="st2_ui-design-65" points="453.4,315.8 430.9,338.2 418.1,303 &#9;"/>
	<path class="st1_ui-design-65" d="M430.9,340.1c-0.1,0-0.3,0-0.4,0c-0.6-0.1-1.1-0.6-1.3-1.2l-12.7-35.2c-0.2-0.7-0.1-1.4,0.4-1.9&#10;&#9;&#9;c0.5-0.5,1.3-0.7,1.9-0.4L454,314c0.6,0.2,1,0.7,1.2,1.3c0.1,0.6-0.1,1.3-0.5,1.7l-22.5,22.5C431.9,339.9,431.4,340.1,430.9,340.1z&#10;&#9;&#9; M421.2,306.1l10.4,28.8l18.4-18.3L421.2,306.1z"/>
	<line class="st7_ui-design-65" x1="442.1" y1="327" x2="449.7" y2="334.5"/>
	<path class="st1_ui-design-65" d="M449.7,336.4c-0.5,0-1-0.2-1.3-0.5l-7.6-7.6c-0.7-0.7-0.6-1.9,0.1-2.6c0.7-0.6,1.8-0.6,2.5,0l7.6,7.6&#10;&#9;&#9;c0.7,0.7,0.7,1.9,0,2.6c0,0,0,0,0,0C450.6,336.2,450.2,336.4,449.7,336.4z"/>
</g>
</svg>